<mxfile host="65bd71144e">
    <diagram name="Page-1" id="fjkQQwFALbnT7vz5Sl6_">
        <mxGraphModel dx="1359" dy="487" grid="1" gridSize="10" guides="1" tooltips="1" connect="1" arrows="1" fold="1" page="1" pageScale="1" pageWidth="850" pageHeight="1100" math="0" shadow="0">
            <root>
                <mxCell id="0"/>
                <mxCell id="1" parent="0"/>
                <mxCell id="b-G-rafgypFjXQwK1PE7-1" value="region" style="rounded=1;whiteSpace=wrap;html=1;" parent="1" vertex="1">
                    <mxGeometry x="130" y="100" width="120" height="60" as="geometry"/>
                </mxCell>
                <mxCell id="b-G-rafgypFjXQwK1PE7-4" style="edgeStyle=orthogonalEdgeStyle;rounded=0;orthogonalLoop=1;jettySize=auto;html=1;entryX=0.5;entryY=0;entryDx=0;entryDy=0;" parent="1" source="b-G-rafgypFjXQwK1PE7-2" target="b-G-rafgypFjXQwK1PE7-1" edge="1">
                    <mxGeometry relative="1" as="geometry"/>
                </mxCell>
                <mxCell id="b-G-rafgypFjXQwK1PE7-2" value="id" style="ellipse;whiteSpace=wrap;html=1;" parent="1" vertex="1">
                    <mxGeometry x="150" y="10" width="80" height="60" as="geometry"/>
                </mxCell>
                <mxCell id="b-G-rafgypFjXQwK1PE7-8" style="edgeStyle=orthogonalEdgeStyle;rounded=0;orthogonalLoop=1;jettySize=auto;html=1;entryX=0.077;entryY=-0.013;entryDx=0;entryDy=0;entryPerimeter=0;" parent="1" source="b-G-rafgypFjXQwK1PE7-6" target="b-G-rafgypFjXQwK1PE7-1" edge="1">
                    <mxGeometry relative="1" as="geometry"/>
                </mxCell>
                <mxCell id="b-G-rafgypFjXQwK1PE7-6" value="country_id" style="shape=hexagon;perimeter=hexagonPerimeter2;whiteSpace=wrap;html=1;fixedSize=1;" parent="1" vertex="1">
                    <mxGeometry x="30" y="20" width="90" height="60" as="geometry"/>
                </mxCell>
                <mxCell id="b-G-rafgypFjXQwK1PE7-10" style="edgeStyle=orthogonalEdgeStyle;rounded=0;orthogonalLoop=1;jettySize=auto;html=1;entryX=0;entryY=0.5;entryDx=0;entryDy=0;" parent="1" source="b-G-rafgypFjXQwK1PE7-9" target="b-G-rafgypFjXQwK1PE7-1" edge="1">
                    <mxGeometry relative="1" as="geometry"/>
                </mxCell>
                <mxCell id="b-G-rafgypFjXQwK1PE7-9" value="region_name" style="ellipse;whiteSpace=wrap;html=1;" parent="1" vertex="1">
                    <mxGeometry x="10" y="100" width="90" height="60" as="geometry"/>
                </mxCell>
                <mxCell id="b-G-rafgypFjXQwK1PE7-11" value="" style="edgeStyle=entityRelationEdgeStyle;fontSize=12;html=1;endArrow=ERoneToMany;rounded=0;entryX=1;entryY=0.5;entryDx=0;entryDy=0;exitX=0;exitY=0.5;exitDx=0;exitDy=0;" parent="1" source="b-G-rafgypFjXQwK1PE7-12" target="b-G-rafgypFjXQwK1PE7-1" edge="1">
                    <mxGeometry width="100" height="100" relative="1" as="geometry">
                        <mxPoint x="310" y="190" as="sourcePoint"/>
                        <mxPoint x="440" y="90" as="targetPoint"/>
                    </mxGeometry>
                </mxCell>
                <mxCell id="b-G-rafgypFjXQwK1PE7-12" value="countries" style="rounded=1;whiteSpace=wrap;html=1;" parent="1" vertex="1">
                    <mxGeometry x="400" y="100" width="120" height="60" as="geometry"/>
                </mxCell>
                <mxCell id="b-G-rafgypFjXQwK1PE7-14" style="edgeStyle=orthogonalEdgeStyle;rounded=0;orthogonalLoop=1;jettySize=auto;html=1;entryX=0.5;entryY=0;entryDx=0;entryDy=0;" parent="1" source="b-G-rafgypFjXQwK1PE7-13" target="b-G-rafgypFjXQwK1PE7-12" edge="1">
                    <mxGeometry relative="1" as="geometry"/>
                </mxCell>
                <mxCell id="b-G-rafgypFjXQwK1PE7-13" value="id" style="ellipse;whiteSpace=wrap;html=1;" parent="1" vertex="1">
                    <mxGeometry x="417.5" y="10" width="85" height="60" as="geometry"/>
                </mxCell>
                <mxCell id="b-G-rafgypFjXQwK1PE7-16" style="edgeStyle=orthogonalEdgeStyle;rounded=0;orthogonalLoop=1;jettySize=auto;html=1;entryX=1;entryY=0.5;entryDx=0;entryDy=0;" parent="1" source="b-G-rafgypFjXQwK1PE7-15" target="b-G-rafgypFjXQwK1PE7-12" edge="1">
                    <mxGeometry relative="1" as="geometry"/>
                </mxCell>
                <mxCell id="b-G-rafgypFjXQwK1PE7-15" value="country_name" style="ellipse;whiteSpace=wrap;html=1;" parent="1" vertex="1">
                    <mxGeometry x="560" y="100" width="90" height="60" as="geometry"/>
                </mxCell>
                <mxCell id="b-G-rafgypFjXQwK1PE7-17" value="&lt;span style=&quot;color: rgb(232, 234, 237); font-family: &amp;quot;Google Sans&amp;quot;, arial, sans-serif; font-size: 28px; text-align: start; background-color: rgb(32, 33, 36);&quot;&gt;accommodation&lt;/span&gt;" style="rounded=1;whiteSpace=wrap;html=1;" parent="1" vertex="1">
                    <mxGeometry x="130" y="310" width="120" height="60" as="geometry"/>
                </mxCell>
                <mxCell id="b-G-rafgypFjXQwK1PE7-19" value="" style="edgeStyle=orthogonalEdgeStyle;fontSize=12;html=1;endArrow=ERoneToMany;rounded=0;exitX=0.5;exitY=1;exitDx=0;exitDy=0;curved=1;entryX=0.5;entryY=0;entryDx=0;entryDy=0;" parent="1" source="b-G-rafgypFjXQwK1PE7-1" target="b-G-rafgypFjXQwK1PE7-17" edge="1">
                    <mxGeometry width="100" height="100" relative="1" as="geometry">
                        <mxPoint x="191" y="200" as="sourcePoint"/>
                        <mxPoint x="200" y="300" as="targetPoint"/>
                    </mxGeometry>
                </mxCell>
                <mxCell id="b-G-rafgypFjXQwK1PE7-25" style="edgeStyle=orthogonalEdgeStyle;curved=1;rounded=0;orthogonalLoop=1;jettySize=auto;html=1;entryX=0.083;entryY=0;entryDx=0;entryDy=0;entryPerimeter=0;" parent="1" source="b-G-rafgypFjXQwK1PE7-21" target="b-G-rafgypFjXQwK1PE7-17" edge="1">
                    <mxGeometry relative="1" as="geometry"/>
                </mxCell>
                <mxCell id="b-G-rafgypFjXQwK1PE7-21" value="region_id" style="shape=hexagon;perimeter=hexagonPerimeter2;whiteSpace=wrap;html=1;fixedSize=1;" parent="1" vertex="1">
                    <mxGeometry x="100" y="220" width="80" height="60" as="geometry"/>
                </mxCell>
                <mxCell id="b-G-rafgypFjXQwK1PE7-27" style="edgeStyle=orthogonalEdgeStyle;curved=1;rounded=0;orthogonalLoop=1;jettySize=auto;html=1;entryX=0.917;entryY=-0.007;entryDx=0;entryDy=0;entryPerimeter=0;" parent="1" target="b-G-rafgypFjXQwK1PE7-17" edge="1">
                    <mxGeometry relative="1" as="geometry">
                        <mxPoint x="240" y="280" as="sourcePoint"/>
                    </mxGeometry>
                </mxCell>
                <mxCell id="b-G-rafgypFjXQwK1PE7-31" style="edgeStyle=orthogonalEdgeStyle;curved=1;rounded=0;orthogonalLoop=1;jettySize=auto;html=1;entryX=0.006;entryY=0.112;entryDx=0;entryDy=0;entryPerimeter=0;" parent="1" source="b-G-rafgypFjXQwK1PE7-28" target="b-G-rafgypFjXQwK1PE7-17" edge="1">
                    <mxGeometry relative="1" as="geometry"/>
                </mxCell>
                <mxCell id="b-G-rafgypFjXQwK1PE7-28" value="name" style="ellipse;whiteSpace=wrap;html=1;" parent="1" vertex="1">
                    <mxGeometry x="-30" y="190" width="90" height="60" as="geometry"/>
                </mxCell>
                <mxCell id="b-G-rafgypFjXQwK1PE7-29" value="id" style="ellipse;whiteSpace=wrap;html=1;" parent="1" vertex="1">
                    <mxGeometry x="200" y="220" width="80" height="60" as="geometry"/>
                </mxCell>
                <mxCell id="b-G-rafgypFjXQwK1PE7-48" style="edgeStyle=orthogonalEdgeStyle;curved=1;rounded=0;orthogonalLoop=1;jettySize=auto;html=1;entryX=1;entryY=0.167;entryDx=0;entryDy=0;entryPerimeter=0;" parent="1" source="b-G-rafgypFjXQwK1PE7-36" target="b-G-rafgypFjXQwK1PE7-17" edge="1">
                    <mxGeometry relative="1" as="geometry"/>
                </mxCell>
                <mxCell id="b-G-rafgypFjXQwK1PE7-36" value="&lt;div style=&quot;color: rgb(212, 212, 212); background-color: rgb(30, 30, 30); font-family: Consolas, &amp;quot;Courier New&amp;quot;, monospace; font-size: 14px; line-height: 19px;&quot;&gt;&lt;span style=&quot;color: rgb(240, 240, 240); font-family: Helvetica; font-size: 12px; background-color: rgb(42, 37, 47);&quot;&gt;additional_information&lt;/span&gt;&lt;br&gt;&lt;/div&gt;" style="ellipse;whiteSpace=wrap;html=1;" parent="1" vertex="1">
                    <mxGeometry x="360" y="270" width="90" height="60" as="geometry"/>
                </mxCell>
                <mxCell id="b-G-rafgypFjXQwK1PE7-50" value="detailed_info" style="rounded=1;whiteSpace=wrap;html=1;" parent="1" vertex="1">
                    <mxGeometry x="135" y="580" width="120" height="60" as="geometry"/>
                </mxCell>
                <mxCell id="b-G-rafgypFjXQwK1PE7-51" value="" style="fontSize=12;html=1;endArrow=ERmany;rounded=0;entryX=0.5;entryY=1;entryDx=0;entryDy=0;exitX=0.5;exitY=0;exitDx=0;exitDy=0;" parent="1" source="b-G-rafgypFjXQwK1PE7-50" target="b-G-rafgypFjXQwK1PE7-17" edge="1">
                    <mxGeometry width="100" height="100" relative="1" as="geometry">
                        <mxPoint x="120" y="500" as="sourcePoint"/>
                        <mxPoint x="220" y="400" as="targetPoint"/>
                    </mxGeometry>
                </mxCell>
                <mxCell id="b-G-rafgypFjXQwK1PE7-55" style="edgeStyle=none;rounded=0;orthogonalLoop=1;jettySize=auto;html=1;" parent="1" source="b-G-rafgypFjXQwK1PE7-54" edge="1">
                    <mxGeometry relative="1" as="geometry">
                        <mxPoint x="140" y="590" as="targetPoint"/>
                    </mxGeometry>
                </mxCell>
                <mxCell id="b-G-rafgypFjXQwK1PE7-54" value="id" style="ellipse;whiteSpace=wrap;html=1;" parent="1" vertex="1">
                    <mxGeometry x="110" y="525" width="80" height="50" as="geometry"/>
                </mxCell>
                <mxCell id="b-G-rafgypFjXQwK1PE7-57" style="edgeStyle=none;rounded=0;orthogonalLoop=1;jettySize=auto;html=1;entryX=0.25;entryY=0;entryDx=0;entryDy=0;" parent="1" source="b-G-rafgypFjXQwK1PE7-56" target="76" edge="1">
                    <mxGeometry relative="1" as="geometry"/>
                </mxCell>
                <mxCell id="b-G-rafgypFjXQwK1PE7-56" value="price_per_night" style="ellipse;whiteSpace=wrap;html=1;" parent="1" vertex="1">
                    <mxGeometry x="-80" y="420" width="80" height="50" as="geometry"/>
                </mxCell>
                <mxCell id="b-G-rafgypFjXQwK1PE7-59" style="edgeStyle=none;rounded=0;orthogonalLoop=1;jettySize=auto;html=1;entryX=0.5;entryY=0;entryDx=0;entryDy=0;" parent="1" source="b-G-rafgypFjXQwK1PE7-58" target="76" edge="1">
                    <mxGeometry relative="1" as="geometry"/>
                </mxCell>
                <mxCell id="b-G-rafgypFjXQwK1PE7-58" value="available_dates" style="ellipse;whiteSpace=wrap;html=1;" parent="1" vertex="1">
                    <mxGeometry x="-20" y="450" width="90" height="60" as="geometry"/>
                </mxCell>
                <mxCell id="2" value="your_moments" style="rounded=1;whiteSpace=wrap;html=1;" parent="1" vertex="1">
                    <mxGeometry x="570" y="320" width="120" height="60" as="geometry"/>
                </mxCell>
                <mxCell id="3" value="image" style="ellipse;whiteSpace=wrap;html=1;" parent="1" vertex="1">
                    <mxGeometry x="480" y="405" width="80" height="50" as="geometry"/>
                </mxCell>
                <mxCell id="4" value="city" style="ellipse;whiteSpace=wrap;html=1;" parent="1" vertex="1">
                    <mxGeometry x="630" y="410" width="90" height="50" as="geometry"/>
                </mxCell>
                <mxCell id="5" value="" style="endArrow=classic;html=1;entryX=0.06;entryY=1.047;entryDx=0;entryDy=0;entryPerimeter=0;exitX=0.375;exitY=0;exitDx=0;exitDy=0;exitPerimeter=0;" parent="1" source="3" target="2" edge="1">
                    <mxGeometry width="50" height="50" relative="1" as="geometry">
                        <mxPoint x="490" y="490" as="sourcePoint"/>
                        <mxPoint x="540" y="440" as="targetPoint"/>
                    </mxGeometry>
                </mxCell>
                <mxCell id="6" value="" style="endArrow=classic;html=1;entryX=0.567;entryY=1.007;entryDx=0;entryDy=0;entryPerimeter=0;exitX=0.28;exitY=0.04;exitDx=0;exitDy=0;exitPerimeter=0;" parent="1" source="4" target="2" edge="1">
                    <mxGeometry width="50" height="50" relative="1" as="geometry">
                        <mxPoint x="510" y="500" as="sourcePoint"/>
                        <mxPoint x="547.2" y="442.81999999999994" as="targetPoint"/>
                        <Array as="points">
                            <mxPoint x="598" y="460"/>
                        </Array>
                    </mxGeometry>
                </mxCell>
                <mxCell id="7" value="newsletter" style="rounded=1;whiteSpace=wrap;html=1;" parent="1" vertex="1">
                    <mxGeometry x="570" y="670" width="120" height="60" as="geometry"/>
                </mxCell>
                <mxCell id="8" value="name" style="ellipse;whiteSpace=wrap;html=1;" parent="1" vertex="1">
                    <mxGeometry x="440" y="760" width="80" height="50" as="geometry"/>
                </mxCell>
                <mxCell id="9" value="email" style="ellipse;whiteSpace=wrap;html=1;" parent="1" vertex="1">
                    <mxGeometry x="600" y="770" width="80" height="50" as="geometry"/>
                </mxCell>
                <mxCell id="10" value="" style="endArrow=classic;html=1;exitX=0.295;exitY=0.048;exitDx=0;exitDy=0;exitPerimeter=0;" parent="1" source="8" target="7" edge="1">
                    <mxGeometry width="50" height="50" relative="1" as="geometry">
                        <mxPoint x="510" y="500" as="sourcePoint"/>
                        <mxPoint x="547.2" y="442.81999999999994" as="targetPoint"/>
                        <Array as="points">
                            <mxPoint x="480" y="760"/>
                        </Array>
                    </mxGeometry>
                </mxCell>
                <mxCell id="11" value="" style="endArrow=classic;html=1;entryX=0.873;entryY=1.007;entryDx=0;entryDy=0;entryPerimeter=0;exitX=0.5;exitY=0;exitDx=0;exitDy=0;" parent="1" source="9" target="7" edge="1">
                    <mxGeometry width="50" height="50" relative="1" as="geometry">
                        <mxPoint x="520" y="510" as="sourcePoint"/>
                        <mxPoint x="557.2" y="452.81999999999994" as="targetPoint"/>
                    </mxGeometry>
                </mxCell>
                <mxCell id="12" value="contact" style="rounded=1;whiteSpace=wrap;html=1;" parent="1" vertex="1">
                    <mxGeometry x="255" y="730" width="120" height="60" as="geometry"/>
                </mxCell>
                <mxCell id="13" value="name" style="ellipse;whiteSpace=wrap;html=1;" parent="1" vertex="1">
                    <mxGeometry x="200" y="850" width="80" height="50" as="geometry"/>
                </mxCell>
                <mxCell id="14" value="email" style="ellipse;whiteSpace=wrap;html=1;" parent="1" vertex="1">
                    <mxGeometry x="356" y="850" width="80" height="50" as="geometry"/>
                </mxCell>
                <mxCell id="15" value="" style="endArrow=classic;html=1;exitX=0.735;exitY=-0.008;exitDx=0;exitDy=0;exitPerimeter=0;entryX=0.25;entryY=1;entryDx=0;entryDy=0;" parent="1" source="13" target="12" edge="1">
                    <mxGeometry width="50" height="50" relative="1" as="geometry">
                        <mxPoint x="473.5999999999999" y="772.4000000000001" as="sourcePoint"/>
                        <mxPoint x="558.75" y="720" as="targetPoint"/>
                        <Array as="points"/>
                    </mxGeometry>
                </mxCell>
                <mxCell id="17" value="" style="endArrow=classic;html=1;exitX=0.425;exitY=0.024;exitDx=0;exitDy=0;exitPerimeter=0;entryX=0.925;entryY=1.02;entryDx=0;entryDy=0;entryPerimeter=0;" parent="1" source="14" target="12" edge="1">
                    <mxGeometry width="50" height="50" relative="1" as="geometry">
                        <mxPoint x="493.5999999999999" y="792.4000000000001" as="sourcePoint"/>
                        <mxPoint x="578.75" y="740" as="targetPoint"/>
                        <Array as="points"/>
                    </mxGeometry>
                </mxCell>
                <mxCell id="18" value="message" style="ellipse;whiteSpace=wrap;html=1;" parent="1" vertex="1">
                    <mxGeometry x="110" y="810" width="80" height="50" as="geometry"/>
                </mxCell>
                <mxCell id="19" value="" style="endArrow=classic;html=1;entryX=0;entryY=0.75;entryDx=0;entryDy=0;" parent="1" source="18" target="12" edge="1">
                    <mxGeometry width="50" height="50" relative="1" as="geometry">
                        <mxPoint x="268.79999999999995" y="859.5999999999999" as="sourcePoint"/>
                        <mxPoint x="295" y="800" as="targetPoint"/>
                        <Array as="points"/>
                    </mxGeometry>
                </mxCell>
                <mxCell id="20" value="airplane_ticket" style="rounded=1;whiteSpace=wrap;html=1;" parent="1" vertex="1">
                    <mxGeometry x="-160" y="740" width="120" height="60" as="geometry"/>
                </mxCell>
                <mxCell id="21" value="destination" style="ellipse;whiteSpace=wrap;html=1;" parent="1" vertex="1">
                    <mxGeometry x="-410" y="730" width="80" height="50" as="geometry"/>
                </mxCell>
                <mxCell id="22" value="date_of_going" style="ellipse;whiteSpace=wrap;html=1;" parent="1" vertex="1">
                    <mxGeometry x="-330" y="780" width="80" height="50" as="geometry"/>
                </mxCell>
                <mxCell id="23" value="adults_number" style="ellipse;whiteSpace=wrap;html=1;" parent="1" vertex="1">
                    <mxGeometry x="-190" y="900" width="80" height="50" as="geometry"/>
                </mxCell>
                <mxCell id="24" value="date_of_return" style="ellipse;whiteSpace=wrap;html=1;" parent="1" vertex="1">
                    <mxGeometry x="-290" y="860" width="80" height="50" as="geometry"/>
                </mxCell>
                <mxCell id="25" value="name" style="ellipse;whiteSpace=wrap;html=1;" parent="1" vertex="1">
                    <mxGeometry x="-450" y="580" width="80" height="50" as="geometry"/>
                </mxCell>
                <mxCell id="27" value="kids_number" style="ellipse;whiteSpace=wrap;html=1;" parent="1" vertex="1">
                    <mxGeometry x="-60" y="860" width="80" height="50" as="geometry"/>
                </mxCell>
                <mxCell id="28" value="" style="endArrow=classic;html=1;entryX=0.317;entryY=-0.08;entryDx=0;entryDy=0;exitX=0.66;exitY=0.984;exitDx=0;exitDy=0;exitPerimeter=0;entryPerimeter=0;" parent="1" source="25" target="20" edge="1">
                    <mxGeometry width="50" height="50" relative="1" as="geometry">
                        <mxPoint x="189.5211524800775" y="828.1307700113841" as="sourcePoint"/>
                        <mxPoint x="265" y="785" as="targetPoint"/>
                        <Array as="points"/>
                    </mxGeometry>
                </mxCell>
                <mxCell id="29" value="" style="endArrow=classic;html=1;exitX=0.965;exitY=0.776;exitDx=0;exitDy=0;exitPerimeter=0;" parent="1" source="21" target="20" edge="1">
                    <mxGeometry width="50" height="50" relative="1" as="geometry">
                        <mxPoint x="199.5211524800775" y="838.1307700113841" as="sourcePoint"/>
                        <mxPoint x="275" y="795" as="targetPoint"/>
                        <Array as="points"/>
                    </mxGeometry>
                </mxCell>
                <mxCell id="30" value="" style="endArrow=classic;html=1;exitX=1;exitY=0.5;exitDx=0;exitDy=0;" parent="1" source="22" target="20" edge="1">
                    <mxGeometry width="50" height="50" relative="1" as="geometry">
                        <mxPoint x="209.5211524800775" y="848.1307700113841" as="sourcePoint"/>
                        <mxPoint x="285" y="805" as="targetPoint"/>
                        <Array as="points"/>
                    </mxGeometry>
                </mxCell>
                <mxCell id="31" value="" style="endArrow=classic;html=1;entryX=0.11;entryY=1.027;entryDx=0;entryDy=0;exitX=0.965;exitY=0.272;exitDx=0;exitDy=0;exitPerimeter=0;entryPerimeter=0;" parent="1" source="24" target="20" edge="1">
                    <mxGeometry width="50" height="50" relative="1" as="geometry">
                        <mxPoint x="219.5211524800775" y="858.1307700113841" as="sourcePoint"/>
                        <mxPoint x="295" y="815" as="targetPoint"/>
                        <Array as="points"/>
                    </mxGeometry>
                </mxCell>
                <mxCell id="32" value="" style="endArrow=classic;html=1;entryX=0.5;entryY=1;entryDx=0;entryDy=0;exitX=0.745;exitY=0.032;exitDx=0;exitDy=0;exitPerimeter=0;" parent="1" source="23" target="20" edge="1">
                    <mxGeometry width="50" height="50" relative="1" as="geometry">
                        <mxPoint x="229.5211524800775" y="868.1307700113841" as="sourcePoint"/>
                        <mxPoint x="305" y="825" as="targetPoint"/>
                        <Array as="points"/>
                    </mxGeometry>
                </mxCell>
                <mxCell id="33" value="" style="endArrow=classic;html=1;exitX=0.5;exitY=0;exitDx=0;exitDy=0;" parent="1" source="27" target="20" edge="1">
                    <mxGeometry width="50" height="50" relative="1" as="geometry">
                        <mxPoint x="239.5211524800775" y="878.1307700113841" as="sourcePoint"/>
                        <mxPoint x="315" y="835" as="targetPoint"/>
                        <Array as="points"/>
                    </mxGeometry>
                </mxCell>
                <mxCell id="34" value="baby_number" style="ellipse;whiteSpace=wrap;html=1;" parent="1" vertex="1">
                    <mxGeometry x="-170" y="585" width="80" height="50" as="geometry"/>
                </mxCell>
                <mxCell id="35" value="" style="endArrow=classic;html=1;entryX=0.317;entryY=-0.08;entryDx=0;entryDy=0;exitX=0.5;exitY=1;exitDx=0;exitDy=0;entryPerimeter=0;" parent="1" source="34" edge="1">
                    <mxGeometry width="50" height="50" relative="1" as="geometry">
                        <mxPoint x="-157.20000000000005" y="709.2" as="sourcePoint"/>
                        <mxPoint x="-101.96000000000004" y="745.2" as="targetPoint"/>
                        <Array as="points"/>
                    </mxGeometry>
                </mxCell>
                <mxCell id="36" value="class" style="ellipse;whiteSpace=wrap;html=1;" parent="1" vertex="1">
                    <mxGeometry x="-110" y="655" width="80" height="50" as="geometry"/>
                </mxCell>
                <mxCell id="37" value="" style="endArrow=classic;html=1;entryX=1;entryY=0.25;entryDx=0;entryDy=0;exitX=0;exitY=1;exitDx=0;exitDy=0;" parent="1" source="36" target="20" edge="1">
                    <mxGeometry width="50" height="50" relative="1" as="geometry">
                        <mxPoint x="-80" y="680" as="sourcePoint"/>
                        <mxPoint x="-91.96000000000004" y="755.2" as="targetPoint"/>
                        <Array as="points"/>
                    </mxGeometry>
                </mxCell>
                <mxCell id="38" value="nights_number" style="ellipse;whiteSpace=wrap;html=1;" parent="1" vertex="1">
                    <mxGeometry x="35" y="425" width="80" height="50" as="geometry"/>
                </mxCell>
                <mxCell id="42" value="galery" style="rounded=1;whiteSpace=wrap;html=1;" parent="1" vertex="1">
                    <mxGeometry x="-290" y="390" width="120" height="60" as="geometry"/>
                </mxCell>
                <mxCell id="44" value="email" style="ellipse;whiteSpace=wrap;html=1;" parent="1" vertex="1">
                    <mxGeometry x="-340" y="520" width="80" height="50" as="geometry"/>
                </mxCell>
                <mxCell id="45" value="phone_number" style="ellipse;whiteSpace=wrap;html=1;" parent="1" vertex="1">
                    <mxGeometry x="-250" y="510" width="80" height="50" as="geometry"/>
                </mxCell>
                <mxCell id="46" value="origin" style="ellipse;whiteSpace=wrap;html=1;" parent="1" vertex="1">
                    <mxGeometry x="-420" y="660" width="80" height="50" as="geometry"/>
                </mxCell>
                <mxCell id="47" value="surname" style="ellipse;whiteSpace=wrap;html=1;" parent="1" vertex="1">
                    <mxGeometry x="-500" y="500" width="80" height="50" as="geometry"/>
                </mxCell>
                <mxCell id="48" value="" style="endArrow=classic;html=1;entryX=0.317;entryY=-0.08;entryDx=0;entryDy=0;exitX=0.955;exitY=0.856;exitDx=0;exitDy=0;exitPerimeter=0;entryPerimeter=0;" parent="1" source="47" edge="1">
                    <mxGeometry width="50" height="50" relative="1" as="geometry">
                        <mxPoint x="-157.20000000000005" y="709.2" as="sourcePoint"/>
                        <mxPoint x="-101.96000000000004" y="745.2" as="targetPoint"/>
                        <Array as="points"/>
                    </mxGeometry>
                </mxCell>
                <mxCell id="49" value="" style="endArrow=classic;html=1;entryX=0.317;entryY=-0.08;entryDx=0;entryDy=0;exitX=0;exitY=0.5;exitDx=0;exitDy=0;entryPerimeter=0;" parent="1" source="45" edge="1">
                    <mxGeometry width="50" height="50" relative="1" as="geometry">
                        <mxPoint x="-147.20000000000005" y="719.2" as="sourcePoint"/>
                        <mxPoint x="-91.96000000000004" y="755.2" as="targetPoint"/>
                        <Array as="points"/>
                    </mxGeometry>
                </mxCell>
                <mxCell id="50" value="" style="endArrow=classic;html=1;entryX=0.317;entryY=-0.08;entryDx=0;entryDy=0;exitX=0.975;exitY=0.808;exitDx=0;exitDy=0;exitPerimeter=0;entryPerimeter=0;" parent="1" source="44" edge="1">
                    <mxGeometry width="50" height="50" relative="1" as="geometry">
                        <mxPoint x="-137.20000000000005" y="729.2" as="sourcePoint"/>
                        <mxPoint x="-81.96000000000004" y="765.2" as="targetPoint"/>
                        <Array as="points"/>
                    </mxGeometry>
                </mxCell>
                <mxCell id="51" value="" style="endArrow=classic;html=1;entryX=0;entryY=0.5;entryDx=0;entryDy=0;exitX=0.99;exitY=0.736;exitDx=0;exitDy=0;exitPerimeter=0;" parent="1" source="46" target="20" edge="1">
                    <mxGeometry width="50" height="50" relative="1" as="geometry">
                        <mxPoint x="-127.20000000000005" y="739.2" as="sourcePoint"/>
                        <mxPoint x="-71.96000000000004" y="775.2" as="targetPoint"/>
                        <Array as="points"/>
                    </mxGeometry>
                </mxCell>
                <mxCell id="52" value="main image" style="ellipse;whiteSpace=wrap;html=1;" parent="1" vertex="1">
                    <mxGeometry x="295" y="190" width="100" height="60" as="geometry"/>
                </mxCell>
                <mxCell id="53" style="edgeStyle=orthogonalEdgeStyle;curved=1;rounded=0;orthogonalLoop=1;jettySize=auto;html=1;entryX=1;entryY=0.5;entryDx=0;entryDy=0;exitX=0.05;exitY=0.833;exitDx=0;exitDy=0;exitPerimeter=0;" parent="1" source="52" target="b-G-rafgypFjXQwK1PE7-17" edge="1">
                    <mxGeometry relative="1" as="geometry">
                        <mxPoint x="310" y="300" as="sourcePoint"/>
                        <mxPoint x="260" y="330.02" as="targetPoint"/>
                    </mxGeometry>
                </mxCell>
                <mxCell id="54" value="transport_description" style="ellipse;whiteSpace=wrap;html=1;" parent="1" vertex="1">
                    <mxGeometry x="200" y="400" width="80" height="55" as="geometry"/>
                </mxCell>
                <mxCell id="56" style="edgeStyle=orthogonalEdgeStyle;curved=1;rounded=0;orthogonalLoop=1;jettySize=auto;html=1;entryX=0;entryY=0.833;entryDx=0;entryDy=0;entryPerimeter=0;" parent="1" source="54" edge="1">
                    <mxGeometry relative="1" as="geometry">
                        <mxPoint x="80" y="410" as="sourcePoint"/>
                        <mxPoint x="140" y="369.98" as="targetPoint"/>
                    </mxGeometry>
                </mxCell>
                <mxCell id="57" value="rating" style="rounded=1;whiteSpace=wrap;html=1;" parent="1" vertex="1">
                    <mxGeometry x="-260" y="150" width="120" height="60" as="geometry"/>
                </mxCell>
                <mxCell id="58" value="rating_id" style="ellipse;whiteSpace=wrap;html=1;" parent="1" vertex="1">
                    <mxGeometry x="-75" y="300" width="90" height="60" as="geometry"/>
                </mxCell>
                <mxCell id="59" style="edgeStyle=orthogonalEdgeStyle;curved=1;rounded=0;orthogonalLoop=1;jettySize=auto;html=1;entryX=0;entryY=0.833;entryDx=0;entryDy=0;entryPerimeter=0;exitX=1;exitY=0.5;exitDx=0;exitDy=0;" parent="1" source="58" edge="1">
                    <mxGeometry relative="1" as="geometry">
                        <mxPoint x="-80" y="410" as="sourcePoint"/>
                        <mxPoint x="140" y="369.98" as="targetPoint"/>
                        <Array as="points">
                            <mxPoint x="25" y="410"/>
                            <mxPoint x="140" y="410"/>
                        </Array>
                    </mxGeometry>
                </mxCell>
                <mxCell id="60" style="edgeStyle=orthogonalEdgeStyle;curved=1;rounded=0;orthogonalLoop=1;jettySize=auto;html=1;exitX=0.647;exitY=-0.06;exitDx=0;exitDy=0;exitPerimeter=0;" parent="1" source="42" target="61" edge="1">
                    <mxGeometry relative="1" as="geometry">
                        <mxPoint x="-90" y="270" as="sourcePoint"/>
                        <mxPoint x="-100" y="150" as="targetPoint"/>
                        <Array as="points">
                            <mxPoint x="-212" y="390"/>
                            <mxPoint x="-175" y="390"/>
                        </Array>
                    </mxGeometry>
                </mxCell>
                <mxCell id="61" value="detailed_info_id" style="ellipse;whiteSpace=wrap;html=1;" parent="1" vertex="1">
                    <mxGeometry x="-280" y="290" width="90" height="60" as="geometry"/>
                </mxCell>
                <mxCell id="62" style="edgeStyle=none;rounded=0;orthogonalLoop=1;jettySize=auto;html=1;entryX=1;entryY=0.5;entryDx=0;entryDy=0;" parent="1" source="63" target="b-G-rafgypFjXQwK1PE7-50" edge="1">
                    <mxGeometry relative="1" as="geometry">
                        <mxPoint x="315" y="620" as="sourcePoint"/>
                        <mxPoint x="260.6399999999999" y="610.4200000000001" as="targetPoint"/>
                    </mxGeometry>
                </mxCell>
                <mxCell id="63" value="description" style="ellipse;whiteSpace=wrap;html=1;" parent="1" vertex="1">
                    <mxGeometry x="280" y="630" width="80" height="50" as="geometry"/>
                </mxCell>
                <mxCell id="64" value="" style="fontSize=12;html=1;endArrow=ERmany;rounded=0;entryX=-0.03;entryY=0.887;entryDx=0;entryDy=0;exitX=1;exitY=0.25;exitDx=0;exitDy=0;entryPerimeter=0;" parent="1" source="57" target="b-G-rafgypFjXQwK1PE7-17" edge="1">
                    <mxGeometry width="100" height="100" relative="1" as="geometry">
                        <mxPoint x="200" y="600" as="sourcePoint"/>
                        <mxPoint x="200" y="380" as="targetPoint"/>
                        <Array as="points">
                            <mxPoint x="10" y="280"/>
                        </Array>
                    </mxGeometry>
                </mxCell>
                <mxCell id="65" value="" style="fontSize=12;html=1;endArrow=ERmany;rounded=0;entryX=1;entryY=1;entryDx=0;entryDy=0;" parent="1" source="b-G-rafgypFjXQwK1PE7-50" target="42" edge="1">
                    <mxGeometry width="100" height="100" relative="1" as="geometry">
                        <mxPoint x="-80" y="395" as="sourcePoint"/>
                        <mxPoint x="136.4000000000001" y="373.22" as="targetPoint"/>
                    </mxGeometry>
                </mxCell>
                <mxCell id="66" value="transport" style="ellipse;whiteSpace=wrap;html=1;" parent="1" vertex="1">
                    <mxGeometry x="190" y="680" width="80" height="50" as="geometry"/>
                </mxCell>
                <mxCell id="67" style="edgeStyle=none;rounded=0;orthogonalLoop=1;jettySize=auto;html=1;exitX=0;exitY=0;exitDx=0;exitDy=0;" parent="1" source="66" target="b-G-rafgypFjXQwK1PE7-50" edge="1">
                    <mxGeometry relative="1" as="geometry">
                        <mxPoint x="325" y="630" as="sourcePoint"/>
                        <mxPoint x="260" y="630" as="targetPoint"/>
                    </mxGeometry>
                </mxCell>
                <mxCell id="68" value="total_price" style="ellipse;whiteSpace=wrap;html=1;" parent="1" vertex="1">
                    <mxGeometry x="110" y="450" width="90" height="60" as="geometry"/>
                </mxCell>
                <mxCell id="69" style="edgeStyle=none;rounded=0;orthogonalLoop=1;jettySize=auto;html=1;exitX=1;exitY=1;exitDx=0;exitDy=0;" parent="1" source="68" edge="1">
                    <mxGeometry relative="1" as="geometry">
                        <mxPoint x="120" y="630" as="sourcePoint"/>
                        <mxPoint x="40" y="640" as="targetPoint"/>
                    </mxGeometry>
                </mxCell>
                <mxCell id="70" value="is_last_minute" style="ellipse;whiteSpace=wrap;html=1;" parent="1" vertex="1">
                    <mxGeometry x="337.5" y="370" width="80" height="50" as="geometry"/>
                </mxCell>
                <mxCell id="71" style="edgeStyle=none;rounded=0;orthogonalLoop=1;jettySize=auto;html=1;" parent="1" source="70" target="b-G-rafgypFjXQwK1PE7-17" edge="1">
                    <mxGeometry relative="1" as="geometry">
                        <mxPoint x="325" y="630" as="sourcePoint"/>
                        <mxPoint x="260" y="630" as="targetPoint"/>
                    </mxGeometry>
                </mxCell>
                <mxCell id="74" style="edgeStyle=none;rounded=0;orthogonalLoop=1;jettySize=auto;html=1;entryX=0.75;entryY=0;entryDx=0;entryDy=0;startArrow=none;" parent="1" source="72" target="b-G-rafgypFjXQwK1PE7-50" edge="1">
                    <mxGeometry relative="1" as="geometry">
                        <mxPoint x="270" y="490" as="sourcePoint"/>
                        <mxPoint x="250.63999999999987" y="600.42" as="targetPoint"/>
                    </mxGeometry>
                </mxCell>
                <mxCell id="75" value="" style="edgeStyle=none;rounded=0;orthogonalLoop=1;jettySize=auto;html=1;entryX=0.75;entryY=0;entryDx=0;entryDy=0;endArrow=none;" parent="1" target="72" edge="1">
                    <mxGeometry relative="1" as="geometry">
                        <mxPoint x="270" y="490" as="sourcePoint"/>
                        <mxPoint x="220" y="590" as="targetPoint"/>
                    </mxGeometry>
                </mxCell>
                <mxCell id="72" value="accommodation_id" style="ellipse;whiteSpace=wrap;html=1;" parent="1" vertex="1">
                    <mxGeometry x="270" y="485" width="80" height="55" as="geometry"/>
                </mxCell>
                <mxCell id="78" value="" style="edgeStyle=none;html=1;" parent="1" source="76" target="38" edge="1">
                    <mxGeometry relative="1" as="geometry"/>
                </mxCell>
                <mxCell id="76" value="rooms" style="rounded=1;whiteSpace=wrap;html=1;" parent="1" vertex="1">
                    <mxGeometry x="-25" y="640" width="120" height="60" as="geometry"/>
                </mxCell>
                <mxCell id="77" value="" style="fontSize=12;html=1;endArrow=ERmany;rounded=0;entryX=0.647;entryY=-0.027;entryDx=0;entryDy=0;exitX=0.007;exitY=0.867;exitDx=0;exitDy=0;entryPerimeter=0;exitPerimeter=0;" parent="1" source="b-G-rafgypFjXQwK1PE7-50" target="76" edge="1">
                    <mxGeometry width="100" height="100" relative="1" as="geometry">
                        <mxPoint x="210" y="590" as="sourcePoint"/>
                        <mxPoint x="200" y="380" as="targetPoint"/>
                    </mxGeometry>
                </mxCell>
                <mxCell id="80" value="detailed_info_id" style="ellipse;whiteSpace=wrap;html=1;" parent="1" vertex="1">
                    <mxGeometry x="5" y="740" width="90" height="60" as="geometry"/>
                </mxCell>
                <mxCell id="81" value="" style="edgeStyle=none;html=1;" parent="1" source="80" target="76" edge="1">
                    <mxGeometry relative="1" as="geometry">
                        <mxPoint x="120" y="693" as="sourcePoint"/>
                        <mxPoint x="170.88028654303093" y="699.7840382057375" as="targetPoint"/>
                    </mxGeometry>
                </mxCell>
                <mxCell id="82" value="image" style="ellipse;whiteSpace=wrap;html=1;" parent="1" vertex="1">
                    <mxGeometry x="-415" y="330" width="90" height="50" as="geometry"/>
                </mxCell>
                <mxCell id="83" style="edgeStyle=orthogonalEdgeStyle;curved=1;rounded=0;orthogonalLoop=1;jettySize=auto;html=1;entryX=1;entryY=0.5;entryDx=0;entryDy=0;" parent="1" source="42" target="82" edge="1">
                    <mxGeometry relative="1" as="geometry">
                        <mxPoint x="-82.3599999999999" y="446.4" as="sourcePoint"/>
                        <mxPoint x="-140" y="410" as="targetPoint"/>
                    </mxGeometry>
                </mxCell>
                <mxCell id="85" value="is_reserved" style="ellipse;whiteSpace=wrap;html=1;" parent="1" vertex="1">
                    <mxGeometry x="110" y="730" width="80" height="50" as="geometry"/>
                </mxCell>
                <mxCell id="86" value="type_of_room" style="ellipse;whiteSpace=wrap;html=1;" parent="1" vertex="1">
                    <mxGeometry x="550" y="510" width="80" height="50" as="geometry"/>
                </mxCell>
                <mxCell id="88" value="" style="endArrow=classic;html=1;entryX=0;entryY=0.5;entryDx=0;entryDy=0;exitX=1;exitY=0.5;exitDx=0;exitDy=0;" parent="1" source="91" target="76" edge="1">
                    <mxGeometry width="50" height="50" relative="1" as="geometry">
                        <mxPoint x="530" y="425" as="sourcePoint"/>
                        <mxPoint x="597.1999999999998" y="402.81999999999994" as="targetPoint"/>
                    </mxGeometry>
                </mxCell>
                <mxCell id="89" value="" style="endArrow=classic;html=1;" parent="1" source="76" target="85" edge="1">
                    <mxGeometry width="50" height="50" relative="1" as="geometry">
                        <mxPoint x="540" y="435" as="sourcePoint"/>
                        <mxPoint x="607.1999999999998" y="412.81999999999994" as="targetPoint"/>
                    </mxGeometry>
                </mxCell>
                <mxCell id="91" value="type_of_room" style="ellipse;whiteSpace=wrap;html=1;" parent="1" vertex="1">
                    <mxGeometry x="-170" y="510" width="80" height="50" as="geometry"/>
                </mxCell>
                <mxCell id="92" value="subscribers" style="rounded=1;whiteSpace=wrap;html=1;" vertex="1" parent="1">
                    <mxGeometry x="-630" y="725" width="120" height="60" as="geometry"/>
                </mxCell>
                <mxCell id="93" value="email" style="ellipse;whiteSpace=wrap;html=1;" vertex="1" parent="1">
                    <mxGeometry x="-540" y="830" width="80" height="50" as="geometry"/>
                </mxCell>
                <mxCell id="94" value="name" style="ellipse;whiteSpace=wrap;html=1;" vertex="1" parent="1">
                    <mxGeometry x="-710" y="830" width="80" height="50" as="geometry"/>
                </mxCell>
                <mxCell id="95" value="" style="endArrow=classic;html=1;entryX=0;entryY=0;entryDx=0;entryDy=0;exitX=0.692;exitY=0.983;exitDx=0;exitDy=0;exitPerimeter=0;" edge="1" parent="1" source="92" target="93">
                    <mxGeometry width="50" height="50" relative="1" as="geometry">
                        <mxPoint x="-330.79999999999995" y="706.8" as="sourcePoint"/>
                        <mxPoint x="-150" y="780" as="targetPoint"/>
                        <Array as="points"/>
                    </mxGeometry>
                </mxCell>
                <mxCell id="96" value="" style="endArrow=classic;html=1;entryX=1;entryY=0;entryDx=0;entryDy=0;exitX=0.25;exitY=1;exitDx=0;exitDy=0;" edge="1" parent="1" source="92" target="94">
                    <mxGeometry width="50" height="50" relative="1" as="geometry">
                        <mxPoint x="-320.79999999999995" y="716.8" as="sourcePoint"/>
                        <mxPoint x="-140" y="790" as="targetPoint"/>
                        <Array as="points">
                            <mxPoint x="-620" y="810"/>
                        </Array>
                    </mxGeometry>
                </mxCell>
                <mxCell id="97" value="offers" style="rounded=1;whiteSpace=wrap;html=1;" vertex="1" parent="1">
                    <mxGeometry x="-760" y="540" width="120" height="60" as="geometry"/>
                </mxCell>
                <mxCell id="98" value="name" style="ellipse;whiteSpace=wrap;html=1;" vertex="1" parent="1">
                    <mxGeometry x="-730" y="690" width="80" height="50" as="geometry"/>
                </mxCell>
                <mxCell id="99" value="title" style="ellipse;whiteSpace=wrap;html=1;" vertex="1" parent="1">
                    <mxGeometry x="-810" y="680" width="60" height="50" as="geometry"/>
                </mxCell>
                <mxCell id="100" value="" style="endArrow=classic;html=1;entryX=0.5;entryY=0;entryDx=0;entryDy=0;" edge="1" parent="1" source="97" target="98">
                    <mxGeometry width="50" height="50" relative="1" as="geometry">
                        <mxPoint x="-590" y="795" as="sourcePoint"/>
                        <mxPoint x="-631.7157287525381" y="847.3223304703363" as="targetPoint"/>
                        <Array as="points"/>
                    </mxGeometry>
                </mxCell>
                <mxCell id="101" value="" style="endArrow=classic;html=1;exitX=0.128;exitY=1;exitDx=0;exitDy=0;exitPerimeter=0;" edge="1" parent="1" source="97" target="99">
                    <mxGeometry width="50" height="50" relative="1" as="geometry">
                        <mxPoint x="-580" y="805" as="sourcePoint"/>
                        <mxPoint x="-621.7157287525381" y="857.3223304703363" as="targetPoint"/>
                        <Array as="points">
                            <mxPoint x="-760" y="660"/>
                        </Array>
                    </mxGeometry>
                </mxCell>
            </root>
        </mxGraphModel>
    </diagram>
</mxfile>